<?xml version="1.0" encoding="UTF-8"?>
<svg id="Layer_1" data-name="Layer 1" xmlns="http://www.w3.org/2000/svg" viewBox="0 0 1837.29 1147.49">
  <defs>
    <style>
      .cls-1 {
        fill: #80c342;
      }

      .cls-2 {
        fill: #1a1750;
      }

      .cls-3 {
        fill: #27aae1;
      }
    </style>
  </defs>
  <path class="cls-1" d="M1237.75,320.34c0,22.47-2.27,44.31-6.76,65.42-30.12,145.69-159.18,254.93-313.65,254.93-111.49,0-209.5-56.87-266.84-143.19-33.94-50.56-53.5-111.49-53.5-177.17C597.01,143.38,740.43,0,917.34,0s320.41,143.38,320.41,320.34Z"/>
  <path class="cls-3" d="M917.67,1147.2c-289.14,10.34-486.49-252.25-486.49-252.25,92.33,12.79,676.55,130.52,1406.12-894.95-488.45,1056.65-688.45,1138.91-919.63,1147.2Z"/>
  <path class="cls-2" d="M917.67,782.03S475.13,807.02,0,0c76.59,455.28,402.66,857.26,402.66,857.26,0,0,256.97,41.27,515.01-75.23Z"/>
</svg>