<?xml version="1.0" encoding="UTF-8" standalone="no"?><!DOCTYPE svg PUBLIC "-//W3C//DTD SVG 1.1//EN" "http://www.w3.org/Graphics/SVG/1.1/DTD/svg11.dtd"><svg width="100%" height="100%" viewBox="0 0 606 96" version="1.1" xmlns="http://www.w3.org/2000/svg" xmlns:xlink="http://www.w3.org/1999/xlink" xml:space="preserve" xmlns:serif="http://www.serif.com/" style="fill-rule:evenodd;clip-rule:evenodd;stroke-linejoin:round;stroke-miterlimit:2;"><g><g><path d="M197.888,64.348c0,5.83 -2.277,7.834 -9.292,7.834l-13.664,0c-12.753,0 -17.855,-4.646 -17.855,-14.029l0,-2.003c0,-10.203 5.83,-14.211 18.583,-14.211c7.288,0 11.205,1.367 13.118,2.733l0,-2.733c0,-6.012 -1.093,-9.109 -11.751,-9.109c-5.102,0 -11.478,0.091 -15.577,0.182l1.73,-7.925c3.371,-0.091 8.745,-0.182 13.847,-0.182c14.666,0 20.86,5.192 20.86,15.304l0,24.139l0.001,0Zm-31.883,-6.285c0,4.281 2.095,6.376 8.927,6.376l13.846,0l0,-8.381c0,-4.737 -1.366,-6.559 -10.567,-6.559l-2.095,0c-8.016,0 -10.111,1.549 -10.111,6.65l0,1.914Z" style="fill:#1a1750;fill-rule:nonzero;"/><path d="M235.601,44.398c10.932,1.002 12.936,7.652 12.936,13.027l0,1.275c0,8.654 -6.104,13.665 -18.948,13.665c-5.466,0 -13.118,-0.092 -20.405,-0.183l1.64,-7.926c6.559,0.092 13.755,0.183 19.221,0.183c7.014,0 9.201,-1.185 9.201,-5.83c0,-2.915 -0.82,-5.192 -6.559,-5.648l-10.931,-1.002c-9.019,-0.729 -12.389,-6.468 -12.389,-12.298l0,-1.548c0,-8.29 5.284,-13.209 18.31,-13.209c5.83,0 11.842,-0.091 19.768,0.182l-1.64,7.925c-10.203,-0.273 -15.122,-0.182 -19.13,-0.182c-6.194,0 -8.29,1.275 -8.29,5.192c0,3.097 0.82,4.919 6.65,5.375l10.566,1.002Z" style="fill:#1a1750;fill-rule:nonzero;"/><path d="M265.026,17.16c-4.282,0 -6.012,-1.73 -6.012,-6.012c0,-4.281 1.73,-6.012 6.012,-6.012c4.281,0 6.012,1.731 6.012,6.012c0,4.282 -1.731,6.012 -6.012,6.012Zm-4.737,7.926l9.565,0l0,47.096l-9.565,0l0,-47.096Z" style="fill:#1a1750;fill-rule:nonzero;"/><path d="M315.401,66.807c-2.46,2.187 -5.922,3.735 -12.845,3.735c-16.943,0 -20.951,-8.198 -20.951,-22.409l0,-2.095c0,-13.847 3.461,-22.41 21.681,-22.41c18.219,0 21.589,8.654 21.589,21.043l0,22.956c0,14.939 -6.377,20.679 -21.771,20.679c-5.557,0 -9.292,0.091 -16.67,-0.183l1.822,-7.925c6.104,0.273 10.02,0.182 14.757,0.182c9.109,0 12.389,-2.642 12.389,-12.753l0,-0.82l-0.001,0Zm0,-15.85l0,-4.373c0,-12.389 -0.82,-15.122 -12.024,-15.122c-11.205,0 -12.024,2.732 -12.024,15.122l0,1.002c0,12.389 0.911,15.122 12.024,15.122c10.111,0 12.024,-2.641 12.024,-11.751Z" style="fill:#1a1750;fill-rule:nonzero;"/><path d="M337.719,58.335l0,-33.25l9.565,0l0,31.338c0,6.103 0.638,9.292 11.113,9.292c10.385,0 11.022,-3.188 11.022,-9.292l0,-31.337l9.565,0l0,33.25c0,11.205 -7.015,15.304 -20.588,15.304c-13.753,-0.001 -20.677,-4.1 -20.677,-15.305Z" style="fill:#1a1750;fill-rule:nonzero;"/><path d="M391.83,72.182l0,-32.248c0,-10.932 7.105,-15.031 17.764,-15.031c5.83,0 8.563,0 10.658,0.091l-1.64,7.925c-0.273,0 -4.737,-0.091 -8.107,-0.091c-8.472,0 -9.109,3.279 -9.109,9.201l0,30.152l-9.566,0l0,0.001Z" style="fill:#1a1750;fill-rule:nonzero;"/><path d="M464.25,64.348c0,5.83 -2.277,7.834 -9.291,7.834l-13.665,0c-12.753,0 -17.854,-4.646 -17.854,-14.029l0,-2.003c0,-10.203 5.83,-14.211 18.584,-14.211c7.287,0 11.204,1.367 13.117,2.733l0,-2.733c0,-6.012 -1.093,-9.109 -11.751,-9.109c-5.102,0 -11.479,0.091 -15.577,0.182l1.73,-7.925c3.371,-0.091 8.745,-0.182 13.847,-0.182c14.666,0 20.86,5.192 20.86,15.304l0,24.139Zm-31.882,-6.285c0,4.281 2.095,6.376 8.927,6.376l13.847,0l0,-8.381c0,-4.737 -1.366,-6.559 -10.566,-6.559l-2.096,0c-8.017,0 -10.111,1.549 -10.111,6.65l0,1.914l-0.001,0Z" style="fill:#1a1750;fill-rule:nonzero;"/><path d="M477.095,72.182l0,-32.248c0,-10.932 7.105,-15.031 17.764,-15.031c5.83,0 8.563,0 10.658,0.091l-1.64,7.925c-0.273,0 -4.737,-0.091 -8.107,-0.091c-8.472,0 -9.109,3.279 -9.109,9.201l0,30.152l-9.566,0l0,0.001Z" style="fill:#1a1750;fill-rule:nonzero;"/><path d="M518.726,17.16c-4.281,0 -6.013,-1.73 -6.013,-6.012c0,-4.281 1.731,-6.012 6.013,-6.012c4.282,0 6.013,1.731 6.013,6.012c-0,4.282 -1.732,6.012 -6.013,6.012Zm-4.737,7.926l9.565,0l0,47.096l-9.565,0l0,-47.096Z" style="fill:#1a1750;fill-rule:nonzero;"/><path d="M536.827,72.51c-1.97,0 -2.954,-1.051 -2.954,-3.086c0,-2.101 0.984,-3.151 2.954,-3.151c1.97,0 2.955,1.051 2.955,3.151c-0,2.035 -0.986,3.086 -2.955,3.086Z" style="fill:#1a1750;fill-rule:nonzero;"/><path d="M550.023,72.182l0,-22.258c0,-9.126 4.07,-11.622 11.95,-11.622c2.889,0 5.712,0 7.222,0.066l-0.722,3.414c-1.116,-0.066 -4.006,-0.131 -6.304,-0.131c-6.565,0 -8.339,1.97 -8.339,8.732l0,21.799l-3.807,0Z" style="fill:#1a1750;fill-rule:nonzero;"/><path d="M605.568,52.813l0,4.99c0,11.753 -4.465,15.43 -14.839,15.43c-10.374,0 -14.839,-3.677 -14.839,-15.43l0,-4.99c0,-11.753 4.465,-15.43 14.839,-15.43c10.374,0 14.839,3.611 14.839,15.43Zm-3.874,0c0,-9.718 -3.02,-12.082 -10.965,-12.082c-8.01,0 -10.965,2.167 -10.965,12.082l0,4.99c0,9.717 2.955,12.081 10.965,12.081c8.011,0 10.965,-2.167 10.965,-12.081l0,-4.99Z" style="fill:#1a1750;fill-rule:nonzero;"/></g><path id="XMLID_10_" d="M103.366,26.751c0,1.876 -0.19,3.7 -0.564,5.463c-2.516,12.167 -13.293,21.29 -26.193,21.29c-9.311,0 -17.495,-4.749 -22.284,-11.958c-2.834,-4.223 -4.468,-9.311 -4.468,-14.795c0,-14.777 11.978,-26.751 26.751,-26.751c14.776,0 26.758,11.974 26.758,26.751Z" style="fill:#80c242;fill-rule:nonzero;"/><path id="XMLID_3_" d="M76.635,95.803c-24.146,0.863 -40.627,-21.065 -40.627,-21.065c7.71,1.068 56.5,10.899 117.426,-74.738c-40.791,88.241 -57.493,95.111 -76.799,95.803Z" style="fill:#26a9e0;fill-rule:nonzero;"/><path d="M76.635,65.308c0,0 -36.956,2.087 -76.635,-65.308c6.396,38.021 33.626,71.59 33.626,71.59c0,0 21.46,3.446 43.009,-6.282Z" style="fill:#1a1750;fill-rule:nonzero;"/></g></svg>